<svg id="Layer_1" data-name="Layer 1" xmlns="http://www.w3.org/2000/svg" viewBox="0 0 51 51"><defs><style>.cls-1,.cls-2{fill:none;}.cls-1{stroke:#000;}.cls-3{fill-rule:evenodd;}</style></defs><circle class="cls-1" cx="25.5" cy="25.5" r="25"/><rect class="cls-2" x="9" y="9" width="34" height="34"/><path class="cls-3" d="M26.26,19.5h.16V17.66H24.58V19.5h.16a2.86,2.86,0,0,0-2.93,2.79v1.22a2.64,2.64,0,0,0,1.55,2.24l.58.21,0,0,2.64,1c.43.27.52.48.52.52v1.23a.8.8,0,0,1-.82.78H24.74a.8.8,0,0,1-.82-.78v-.57H21.81v.57a2.84,2.84,0,0,0,2.77,2.77v1.87h1.84V31.48a2.84,2.84,0,0,0,2.77-2.77V27.48a2.69,2.69,0,0,0-1.58-2.27L27.16,25l0,0-2.77-1c-.4-.26-.49-.45-.49-.5V22.29a.8.8,0,0,1,.82-.79h1.52a.8.8,0,0,1,.82.79v.57h2.11v-.57A2.86,2.86,0,0,0,26.26,19.5Z"/><path class="cls-3" d="M35.64,34.21v-9.5a5.42,5.42,0,0,0,0-.79c0-3.91-2.44-9.24-6.1-11.68a.75.75,0,0,0,.05-.26.65.65,0,0,0-.65-.66H28.8l.89-3.21a1.12,1.12,0,0,0-.15-.92,1.62,1.62,0,0,0-1.16-.65,1.81,1.81,0,0,0-1,.14,1.68,1.68,0,0,0-.93-.29h-.07a1.84,1.84,0,0,0-.89.23,1.8,1.8,0,0,0-.88-.23h-.08a1.68,1.68,0,0,0-.93.29,1.81,1.81,0,0,0-1-.14,1.59,1.59,0,0,0-1.16.65,1.1,1.1,0,0,0-.15.91l.89,3.24a.66.66,0,0,0-.49.64.22.22,0,0,0,0,.08c-3.82,2.35-6.39,7.85-6.39,11.85a5.59,5.59,0,0,0,0,.81v9.49a1.79,1.79,0,0,0-.91,1.56v.09a1.79,1.79,0,0,0,1.79,1.78H34.76a1.79,1.79,0,0,0,1.79-1.78v-.09A1.79,1.79,0,0,0,35.64,34.21ZM22.78,7.84a.56.56,0,0,1,.3,0,.64.64,0,0,0,.72.48.65.65,0,0,0,.57-.61.68.68,0,0,1,.25-.06.52.52,0,0,1,.23,0,.66.66,0,0,0,.65.56h0a.66.66,0,0,0,.65-.55.44.44,0,0,1,.26-.06h0a.66.66,0,0,1,.22.06.64.64,0,0,0,.56.61.66.66,0,0,0,.73-.48.54.54,0,0,1,.3,0,.53.53,0,0,1,.17,0l-.95,3.44H23.56l-.95-3.44A.53.53,0,0,1,22.78,7.84Zm12.46,28a.47.47,0,0,1-.48.47H16.24a.48.48,0,0,1-.48-.47v-.09a.47.47,0,0,1,.38-.47.66.66,0,0,0,.53-.64v-10c0-.25,0-.48,0-.71,0-3.52,2.55-9.49,6.71-11.24l.08,0h4.14l.09,0c4.15,1.74,6.7,7.72,6.7,11.25a5.78,5.78,0,0,1,0,.7v10a.66.66,0,0,0,.53.64.47.47,0,0,1,.38.47Z"/></svg>