<svg width="51" height="51" viewBox="0 0 51 51" fill="none" xmlns="http://www.w3.org/2000/svg">
<circle cx="25.5" cy="25.5" r="25" fill="none" stroke="#000"/>
<g clip-path="url(#clip0)">
<path d="M17.9971 14C17.4471 14 16.9971 14.45 16.9971 15V37C16.9971 37.55 17.4471 38 17.9971 38H33.9971C34.5471 38 34.9971 37.55 34.9971 37V15C34.9971 14.45 34.5471 14 33.9971 14H17.9971ZM17.9971 13H33.9971C35.0971 13 35.9971 13.9 35.9971 15V37C35.9971 38.1 35.0971 39 33.9971 39H17.9971C16.8971 39 15.9971 38.1 15.9971 37V15C15.9971 13.9 16.8971 13 17.9971 13Z" fill="#000"/>
<path d="M20.7271 18H30.7271" stroke="#000" stroke-width="2" stroke-linecap="round"/>
<path d="M20.7271 22.72H27.3571" stroke="#000" stroke-width="2" stroke-linecap="round"/>
<path d="M20.7271 27.4399H30.7271" stroke="#000" stroke-width="2" stroke-linecap="round"/>
<path d="M20.7271 32.4399H28.3571" stroke="#000" stroke-width="2" stroke-linecap="round"/>
</g>
<defs>
<clipPath id="clip0">
<rect width="20" height="26" fill="none" transform="translate(16 13)"/>
</clipPath>
</defs>
</svg>
