<svg width="51" height="51" viewBox="0 0 51 51" fill="none" xmlns="http://www.w3.org/2000/svg">
<circle cx="25.5" cy="25.5" r="25" fill="none" stroke="#000"/>
<path d="M29.09 28.1C30.15 28.47 31.11 28.98 31.97 29.64C32.83 30.3 33.55 31.06 34.15 31.93C34.75 32.8 35.21 33.75 35.53 34.78C35.85 35.81 36 36.88 36 38H34.5C34.5 36.72 34.27 35.53 33.81 34.43C33.35 33.33 32.72 32.38 31.92 31.58C31.12 30.78 30.16 30.14 29.07 29.69C27.98 29.24 26.78 29 25.5 29C24.66 29 23.86 29.11 23.09 29.32C22.32 29.53 21.6 29.83 20.93 30.22C20.26 30.61 19.66 31.07 19.11 31.61C18.56 32.15 18.1 32.76 17.72 33.43C17.34 34.1 17.03 34.82 16.82 35.59C16.61 36.36 16.5 37.16 16.5 38H15C15 36.87 15.16 35.8 15.49 34.77C15.82 33.74 16.28 32.8 16.88 31.94C17.48 31.08 18.21 30.32 19.07 29.67C19.93 29.02 20.88 28.49 21.94 28.11C21.33 27.78 20.78 27.38 20.3 26.91C19.82 26.44 19.4 25.92 19.06 25.35C18.72 24.78 18.46 24.16 18.27 23.51C18.08 22.86 18 22.19 18 21.5C18 20.46 18.2 19.49 18.59 18.58C18.98 17.67 19.52 16.87 20.2 16.2C20.88 15.53 21.67 14.99 22.58 14.59C23.49 14.19 24.46 14 25.5 14C26.54 14 27.51 14.2 28.42 14.59C29.33 14.98 30.13 15.52 30.8 16.2C31.47 16.88 32.01 17.67 32.41 18.58C32.81 19.49 33 20.46 33 21.5C33 22.19 32.91 22.86 32.72 23.5C32.53 24.14 32.27 24.76 31.93 25.33C31.59 25.9 31.18 26.42 30.7 26.89C30.22 27.36 29.69 27.77 29.09 28.1ZM19.5 21.5C19.5 22.33 19.66 23.11 19.97 23.83C20.28 24.55 20.72 25.19 21.26 25.73C21.8 26.27 22.44 26.7 23.16 27.02C23.88 27.34 24.66 27.49 25.49 27.49C26.32 27.49 27.1 27.33 27.82 27.02C28.54 26.71 29.18 26.27 29.72 25.73C30.26 25.19 30.69 24.55 31.01 23.83C31.33 23.11 31.48 22.33 31.48 21.5C31.48 20.67 31.32 19.89 31.01 19.17C30.7 18.45 30.26 17.81 29.72 17.27C29.18 16.73 28.54 16.3 27.82 15.98C27.1 15.66 26.33 15.5 25.5 15.5C24.67 15.5 23.89 15.66 23.17 15.97C22.45 16.28 21.81 16.72 21.27 17.26C20.73 17.8 20.3 18.44 19.98 19.16C19.66 19.88 19.5 20.67 19.5 21.5Z" fill="#000"/>
</svg>
